<svg width="255" height="255" viewBox="0 0 255 255" fill="none" xmlns="http://www.w3.org/2000/svg">
<g clip-path="url(#clip0_154_137)">
<path d="M255 128.281C255 57.4228 197.912 -0.0159302 127.5 -0.0159302C57.0562 7.32498e-06 -0.0318756 57.4228 -0.0318756 128.297C-0.0318756 192.318 46.6012 245.39 107.546 255.016V165.368H75.1931V128.297H107.578V100.008C107.578 67.8619 126.623 50.1075 155.741 50.1075C169.702 50.1075 184.285 52.6097 184.285 52.6097V84.1659H168.204C152.378 84.1659 147.438 94.0631 147.438 104.215V128.281H182.787L177.145 165.352H147.422V255C208.367 245.374 255 192.302 255 128.281Z" fill="#059BE5"/>
</g>
<defs>
<clipPath id="clip0_154_137">
<rect width="255" height="255" rx="40" fill="white"/>
</clipPath>
</defs>
</svg>
