<svg width="255" height="255" viewBox="0 0 255 255" fill="none" xmlns="http://www.w3.org/2000/svg">
<path d="M252.516 102.527H242.246V101.998H127.498V152.997H199.553C189.041 182.685 160.794 203.996 127.498 203.996C85.2514 203.996 50.9991 169.744 50.9991 127.498C50.9991 85.2514 85.2514 50.9991 127.498 50.9991C146.999 50.9991 164.74 58.3557 178.248 70.3724L214.311 34.3097C191.54 13.0876 161.081 0 127.498 0C57.0871 0 0 57.0871 0 127.498C0 197.908 57.0871 254.996 127.498 254.996C197.908 254.996 254.996 197.908 254.996 127.498C254.996 118.949 254.116 110.604 252.516 102.527Z" fill="#FFC107"/>
<path d="M14.6921 68.1539L56.5815 98.8745C67.9161 70.8123 95.3664 50.9991 127.489 50.9991C146.99 50.9991 164.732 58.3557 178.24 70.3724L214.303 34.3097C191.532 13.0876 161.072 0 127.489 0C78.5175 0 36.048 27.6479 14.6921 68.1539Z" fill="#FF3D00"/>
<path d="M127.5 255C160.432 255 190.356 242.397 212.981 221.902L173.52 188.51C160.289 198.572 144.122 204.014 127.5 204.001C94.3376 204.001 66.1797 182.855 55.5719 153.346L13.9949 185.38C35.0958 226.67 77.9478 255 127.5 255Z" fill="#4CAF50"/>
<path d="M252.516 102.527H242.246V101.998H127.498V152.997H199.553C194.525 167.127 185.467 179.473 173.499 188.512L173.518 188.499L212.979 221.891C210.187 224.428 254.996 191.247 254.996 127.498C254.996 118.949 254.116 110.604 252.516 102.527Z" fill="#1976D2"/>
</svg>
