<svg width="104" height="114" viewBox="0 0 154 164" fill="none" xmlns="http://www.w3.org/2000/svg">
<g clip-path="url(#clip0_354_414)">
<mask id="mask0_354_414" style="mask-type:luminance" maskUnits="userSpaceOnUse" x="0" y="0" width="154" height="164">
<path d="M154 0H0V164H154V0Z" fill="white"/>
</mask>
<g mask="url(#mask0_354_414)">
<path d="M20.4554 0H133.545L137.928 1.16934L142.603 3.50802L145.234 5.55435L146.694 6.72371L149.325 9.93941L151.662 14.0321L153.123 17.5401L154 21.6328V142.367L152.831 147.045L151.37 150.553L149.325 154.061L146.402 157.569L142.603 160.492L137.928 162.831L133.545 164H20.4554L16.0721 162.831L11.3966 160.492L8.76659 158.446L7.3055 157.276L4.67552 154.061L2.33776 149.968L0.876659 146.46L0 142.367V21.6328L1.16888 16.9554L2.62998 13.4474L4.67552 9.93941L7.59771 6.43139L11.3966 3.50802L16.0721 1.16934L20.4554 0Z" fill="#03038C"/>
<path d="M21.9165 120.442H87.9581V150.553H21.9165V120.442Z" fill="#000001"/>
<path d="M21.9165 84.4849H87.9581V114.595H21.9165V84.4849Z" fill="black"/>
<path d="M21.9165 48.5273H87.9581V78.6379H21.9165V48.5273Z" fill="#010000"/>
<path d="M21.9165 12.5703H87.9581V42.6809H21.9165V12.5703Z" fill="black"/>
<path d="M122.44 127.166H138.22V143.829H122.44V127.166Z" fill="#307FF6"/>
<path d="M101.692 127.166H117.472V143.829H101.692V127.166Z" fill="#941617"/>
<path d="M122.44 91.2085H138.22V107.872H122.44V91.2085Z" fill="#951617"/>
<path d="M101.692 91.2085H117.472V107.872H101.692V91.2085Z" fill="#941617"/>
<path d="M122.44 55.2515H138.22V71.9144H122.44V55.2515Z" fill="#951617"/>
<path d="M101.692 55.2515H117.472V71.9144H101.692V55.2515Z" fill="#941617"/>
<path d="M122.44 19.2942H138.22V35.9573H122.44V19.2942Z" fill="#307FF6"/>
<path d="M101.692 19.2942H117.472V35.9573H101.692V19.2942Z" fill="#D7D7D8"/>
<path d="M76.5616 16.3708H79.4836L81.8213 17.5402L83.8668 19.8789L85.0359 23.3869V29.8183L84.1594 33.3263L82.406 35.9573L79.7758 37.4191H76.2694L73.9313 36.2495L72.1783 33.9109L71.3014 31.8646L71.0093 30.4029V23.6792L72.1783 19.8789L74.516 17.2479L76.5616 16.3708Z" fill="#020000"/>
<path d="M59.0283 16.3708H61.9508L64.2885 17.5402L66.334 19.8789L67.5027 23.3869V29.8183L66.6262 33.3263L64.8728 35.9573L62.2429 37.4191H58.7362L56.3985 36.2495L54.6451 33.9109L53.7686 31.8646L53.4761 30.4029V23.6792L54.6451 19.8789L56.9828 17.2479L59.0283 16.3708Z" fill="#020000"/>
<path d="M76.5616 125.704H79.1914L81.5291 126.581L83.5747 128.627L84.7437 131.259L85.0359 132.428V139.444L84.1594 142.659L82.406 145.291L79.7758 146.752H76.2694L73.347 144.998L71.8858 142.367L71.0093 139.736V132.72L72.1783 129.505L73.347 127.751L75.1004 126.289L76.5616 125.704Z" fill="#020001"/>
<path d="M59.0283 125.704H61.6582L63.9963 126.581L66.0418 128.627L67.2105 131.259L67.5027 132.428V139.444L66.6262 142.659L64.8728 145.291L62.2429 146.752H58.7362L55.8141 144.998L54.3529 142.367L53.4761 139.736V132.72L54.6451 129.505L55.8141 127.751L57.5672 126.289L59.0283 125.704Z" fill="#020001"/>
<path d="M75.6847 90.3315H78.315L80.6527 91.2084L82.6982 93.2548L83.8669 95.886L84.1594 97.0552V104.071L83.2825 107.287L81.5292 109.918L78.6071 111.38H75.3926L72.4705 109.626L71.0093 106.994L70.1328 104.364V97.3476L71.3015 94.132L72.4705 92.3779L74.2239 90.916L75.6847 90.3315Z" fill="#020000"/>
<path d="M77.146 54.6667H79.7759L82.114 55.5439L84.1595 57.59L85.3282 60.2212L85.6203 61.3904V68.4064L84.7438 71.622L82.9905 74.2532L80.0684 75.7149H76.8539L73.9315 73.9608L72.4706 71.33L71.5938 68.6988V61.6828L72.7628 58.4672L73.9315 56.7132L75.6848 55.2515L77.146 54.6667Z" fill="#020000"/>
<path d="M59.613 54.6667H62.2432L64.5809 55.5439L66.6264 57.59L67.7951 60.2212L68.0876 61.3904V68.4064L67.2108 71.622L65.4574 74.2532L62.5354 75.7149H59.3208L56.3987 73.9608L54.9375 71.33L54.061 68.6988V61.6828L55.2297 58.4672L56.3987 56.7132L58.1521 55.2515L59.613 54.6667Z" fill="#020000"/>
<path d="M42.0796 54.6667H44.7095L47.0472 55.5439L49.0927 57.59L50.2618 60.2212L50.5539 61.3904V68.4064L49.6774 71.622L47.9241 74.2532L45.0017 75.7149H41.7875L38.8651 73.9608L37.4039 71.33L36.5273 68.6988V61.6828L37.6964 58.4672L38.8651 56.7132L40.6184 55.2515L42.0796 54.6667Z" fill="#020000"/>
<path d="M76.5616 125.704H79.1914L81.5291 126.581L83.5747 128.627L84.7437 131.259L85.0359 132.428V139.444L84.1594 142.659L82.406 145.291L79.7758 146.752H76.2694L73.347 144.998L71.8858 142.367L71.0093 139.736V132.72L72.1783 129.505L73.347 127.751L75.1004 126.289L76.5616 125.704ZM76.5616 128.043L74.8082 129.505L73.6392 132.135L73.347 133.597V138.567L74.2238 141.783L75.3925 143.537L76.5616 144.413H79.4836L81.5291 142.659L82.406 140.321L82.6982 138.859V133.013L81.5291 129.797L79.4836 128.043H76.5616Z" fill="#EB1212"/>
<path d="M59.0283 125.704H61.6582L63.9963 126.581L66.0418 128.627L67.2105 131.259L67.5027 132.428V139.444L66.6262 142.659L64.8728 145.291L62.2429 146.752H58.7362L55.8141 144.998L54.3529 142.367L53.4761 139.736V132.72L54.6451 129.505L55.8141 127.751L57.5672 126.289L59.0283 125.704ZM59.0283 128.043L57.275 129.505L56.1063 132.135L55.8141 133.597V138.567L56.6906 141.783L57.8597 143.537L59.0283 144.413H61.9508L63.9963 142.659L64.8728 140.321L65.165 138.859V133.013L63.9963 129.797L61.9508 128.043H59.0283Z" fill="#EB1212"/>
<path d="M75.6847 90.3315H78.315L80.6527 91.2084L82.6982 93.2548L83.8669 95.886L84.1594 97.0552V104.071L83.2825 107.287L81.5292 109.918L78.6071 111.38H75.3926L72.4705 109.626L71.0093 106.994L70.1328 104.364V97.3476L71.3015 94.132L72.4705 92.3779L74.2239 90.916L75.6847 90.3315ZM75.6847 92.67L73.9314 94.132L72.7627 96.7628L72.4705 98.2244V103.194L73.347 106.41L74.5161 108.164L75.6847 109.041H78.6071L80.6527 107.287L81.5292 104.948L81.8213 103.486V97.64L80.6527 94.424L78.6071 92.67H75.6847Z" fill="#EB1212"/>
<path d="M77.146 54.6667H79.7759L82.114 55.5439L84.1595 57.59L85.3282 60.2212L85.6203 61.3904V68.4064L84.7438 71.622L82.9905 74.2532L80.0684 75.7149H76.8539L73.9315 73.9608L72.4706 71.33L71.5938 68.6988V61.6828L72.7628 58.4672L73.9315 56.7132L75.6848 55.2515L77.146 54.6667ZM77.146 57.0055L75.3927 58.4672L74.224 61.098L73.9315 62.56V67.5296L74.8083 70.7452L75.9774 72.4992L77.146 73.3761H80.0684L82.114 71.622L82.9905 69.2836L83.2826 67.822V61.9752L82.114 58.7596L80.0684 57.0055H77.146Z" fill="#EB1212"/>
<path d="M59.613 54.6667H62.2432L64.5809 55.5439L66.6264 57.59L67.7951 60.2212L68.0876 61.3904V68.4064L67.2108 71.622L65.4574 74.2532L62.5354 75.7149H59.3208L56.3987 73.9608L54.9375 71.33L54.061 68.6988V61.6828L55.2297 58.4672L56.3987 56.7132L58.1521 55.2515L59.613 54.6667ZM59.613 57.0055L57.8599 58.4672L56.6909 61.098L56.3987 62.56V67.5296L57.2752 70.7452L58.4443 72.4992L59.613 73.3761H62.5354L64.5809 71.622L65.4574 69.2836L65.7496 67.822V61.9752L64.5809 58.7596L62.5354 57.0055H59.613Z" fill="#EB1212"/>
<path d="M42.0796 54.6667H44.7095L47.0472 55.5439L49.0927 57.59L50.2618 60.2212L50.5539 61.3904V68.4064L49.6774 71.622L47.9241 74.2532L45.0017 75.7149H41.7875L38.8651 73.9608L37.4039 71.33L36.5273 68.6988V61.6828L37.6964 58.4672L38.8651 56.7132L40.6184 55.2515L42.0796 54.6667ZM42.0796 57.0055L40.3262 58.4672L39.1572 61.098L38.8651 62.56V67.5296L39.7419 70.7452L40.9106 72.4992L42.0796 73.3761H45.0017L47.0472 71.622L47.9241 69.2836L48.2162 67.822V61.9752L47.0472 58.7596L45.0017 57.0055H42.0796Z" fill="#EB1212"/>
<path d="M76.5616 16.3708H79.4836L81.8213 17.5402L83.8668 19.8789L85.0359 23.3869V29.8183L84.1594 33.3263L82.406 35.9573L79.7758 37.4191H76.2694L73.9313 36.2495L72.1783 33.9109L71.3014 31.8646L71.0093 30.4029V23.6792L72.1783 19.8789L74.516 17.2479L76.5616 16.3708ZM76.5616 18.7095L74.516 20.4635L73.6392 22.5099L73.347 24.8486V30.1106L74.516 33.3263L76.5616 35.0803H79.4836L81.5291 33.3263L82.406 31.2799L82.6982 29.8183V24.8486L82.1138 21.6329L80.9448 19.8789L79.4836 18.7095H76.5616Z" fill="#EB1212"/>
<path d="M59.0283 16.3708H61.9508L64.2885 17.5402L66.334 19.8789L67.5027 23.3869V29.8183L66.6262 33.3263L64.8728 35.9573L62.2429 37.4191H58.7362L56.3985 36.2495L54.6451 33.9109L53.7686 31.8646L53.4761 30.4029V23.6792L54.6451 19.8789L56.9828 17.2479L59.0283 16.3708ZM59.0283 18.7095L56.9828 20.4635L56.1063 22.5099L55.8141 24.8486V30.1106L56.9828 33.3263L59.0283 35.0803H61.9508L63.9963 33.3263L64.8728 31.2799L65.165 29.8183V24.8486L64.5806 21.6329L63.4116 19.8789L61.9508 18.7095H59.0283Z" fill="#EB1212"/>
</g>
</g>
<defs>
<clipPath id="clip0_354_414">
<rect width="154" height="164" fill="white"/>
</clipPath>
</defs>
</svg>
