<svg width="527" height="561" viewBox="0 0 527 561" fill="none" xmlns="http://www.w3.org/2000/svg">
<path d="M527 87.6562C527 39.245 490.133 0 444.656 0H82.3438C36.8666 0 0 39.245 0 87.6562V473.344C0 521.755 36.8666 561 82.3438 561H444.656C490.133 561 527 521.755 527 473.344V87.6562Z" fill="#00008B"/>
<rect x="347.535" y="66" width="54.1243" height="57" fill="#D9D9D9"/>
<rect x="418.751" y="66" width="54.1243" height="57" fill="#3180F7"/>
<rect x="347.535" y="189" width="54.1243" height="57" fill="#961717"/>
<rect x="418.751" y="189" width="54.1243" height="57" fill="#961717"/>
<rect x="347.535" y="312" width="54.1243" height="57" fill="#961717"/>
<rect x="418.751" y="312" width="54.1243" height="57" fill="#961717"/>
<rect x="347.535" y="435" width="54.1243" height="57" fill="#961717"/>
<rect x="418.751" y="435" width="54.1243" height="57" fill="#3180F7"/>
<rect x="74.5649" y="42.5" width="226.892" height="104" fill="black" stroke="#E5D4D4"/>
<rect x="74.5649" y="165.5" width="226.892" height="104" fill="black" stroke="#E5D4D4"/>
<rect x="74.5649" y="288.5" width="226.892" height="104" fill="black" stroke="#E5D4D4"/>
<rect x="74.5649" y="411.5" width="226.892" height="104" fill="black" fill-opacity="0.99" stroke="#E5D4D4"/>
<path d="M207 127.955C201.864 127.955 197.489 126.557 193.875 123.761C190.261 120.943 187.5 116.864 185.591 111.523C183.682 106.159 182.727 99.6818 182.727 92.0909C182.727 84.5455 183.682 78.1023 185.591 72.7614C187.523 67.3977 190.295 63.3068 193.909 60.4886C197.545 57.6477 201.909 56.2273 207 56.2273C212.091 56.2273 216.443 57.6477 220.057 60.4886C223.693 63.3068 226.466 67.3977 228.375 72.7614C230.307 78.1023 231.273 84.5455 231.273 92.0909C231.273 99.6818 230.318 106.159 228.409 111.523C226.5 116.864 223.739 120.943 220.125 123.761C216.511 126.557 212.136 127.955 207 127.955ZM207 120.455C212.091 120.455 216.045 118 218.864 113.091C221.682 108.182 223.091 101.182 223.091 92.0909C223.091 86.0455 222.443 80.8977 221.148 76.6477C219.875 72.3977 218.034 69.1591 215.625 66.9318C213.239 64.7045 210.364 63.5909 207 63.5909C201.955 63.5909 198.011 66.0795 195.17 71.0568C192.33 76.0114 190.909 83.0227 190.909 92.0909C190.909 98.1364 191.545 103.273 192.818 107.5C194.091 111.727 195.92 114.943 198.307 117.148C200.716 119.352 203.614 120.455 207 120.455ZM267 127.955C261.864 127.955 257.489 126.557 253.875 123.761C250.261 120.943 247.5 116.864 245.591 111.523C243.682 106.159 242.727 99.6818 242.727 92.0909C242.727 84.5455 243.682 78.1023 245.591 72.7614C247.523 67.3977 250.295 63.3068 253.909 60.4886C257.545 57.6477 261.909 56.2273 267 56.2273C272.091 56.2273 276.443 57.6477 280.057 60.4886C283.693 63.3068 286.466 67.3977 288.375 72.7614C290.307 78.1023 291.273 84.5455 291.273 92.0909C291.273 99.6818 290.318 106.159 288.409 111.523C286.5 116.864 283.739 120.943 280.125 123.761C276.511 126.557 272.136 127.955 267 127.955ZM267 120.455C272.091 120.455 276.045 118 278.864 113.091C281.682 108.182 283.091 101.182 283.091 92.0909C283.091 86.0455 282.443 80.8977 281.148 76.6477C279.875 72.3977 278.034 69.1591 275.625 66.9318C273.239 64.7045 270.364 63.5909 267 63.5909C261.955 63.5909 258.011 66.0795 255.17 71.0568C252.33 76.0114 250.909 83.0227 250.909 92.0909C250.909 98.1364 251.545 103.273 252.818 107.5C254.091 111.727 255.92 114.943 258.307 117.148C260.716 119.352 263.614 120.455 267 120.455Z" fill="#F41313"/>
<path d="M149.097 258.955C143.961 258.955 139.586 257.557 135.972 254.761C132.359 251.943 129.597 247.864 127.688 242.523C125.779 237.159 124.825 230.682 124.825 223.091C124.825 215.545 125.779 209.102 127.688 203.761C129.62 198.398 132.393 194.307 136.006 191.489C139.643 188.648 144.006 187.227 149.097 187.227C154.188 187.227 158.54 188.648 162.154 191.489C165.79 194.307 168.563 198.398 170.472 203.761C172.404 209.102 173.37 215.545 173.37 223.091C173.37 230.682 172.415 237.159 170.506 242.523C168.597 247.864 165.836 251.943 162.222 254.761C158.609 257.557 154.234 258.955 149.097 258.955ZM149.097 251.455C154.188 251.455 158.143 249 160.961 244.091C163.779 239.182 165.188 232.182 165.188 223.091C165.188 217.045 164.54 211.898 163.245 207.648C161.972 203.398 160.131 200.159 157.722 197.932C155.336 195.705 152.461 194.591 149.097 194.591C144.052 194.591 140.109 197.08 137.268 202.057C134.427 207.011 133.006 214.023 133.006 223.091C133.006 229.136 133.643 234.273 134.915 238.5C136.188 242.727 138.018 245.943 140.404 248.148C142.813 250.352 145.711 251.455 149.097 251.455ZM209.097 258.955C203.961 258.955 199.586 257.557 195.972 254.761C192.359 251.943 189.597 247.864 187.688 242.523C185.779 237.159 184.825 230.682 184.825 223.091C184.825 215.545 185.779 209.102 187.688 203.761C189.62 198.398 192.393 194.307 196.006 191.489C199.643 188.648 204.006 187.227 209.097 187.227C214.188 187.227 218.54 188.648 222.154 191.489C225.79 194.307 228.563 198.398 230.472 203.761C232.404 209.102 233.37 215.545 233.37 223.091C233.37 230.682 232.415 237.159 230.506 242.523C228.597 247.864 225.836 251.943 222.222 254.761C218.609 257.557 214.234 258.955 209.097 258.955ZM209.097 251.455C214.188 251.455 218.143 249 220.961 244.091C223.779 239.182 225.188 232.182 225.188 223.091C225.188 217.045 224.54 211.898 223.245 207.648C221.972 203.398 220.131 200.159 217.722 197.932C215.336 195.705 212.461 194.591 209.097 194.591C204.052 194.591 200.109 197.08 197.268 202.057C194.427 207.011 193.006 214.023 193.006 223.091C193.006 229.136 193.643 234.273 194.915 238.5C196.188 242.727 198.018 245.943 200.404 248.148C202.813 250.352 205.711 251.455 209.097 251.455ZM269.097 258.955C263.961 258.955 259.586 257.557 255.972 254.761C252.359 251.943 249.597 247.864 247.688 242.523C245.779 237.159 244.825 230.682 244.825 223.091C244.825 215.545 245.779 209.102 247.688 203.761C249.62 198.398 252.393 194.307 256.006 191.489C259.643 188.648 264.006 187.227 269.097 187.227C274.188 187.227 278.54 188.648 282.154 191.489C285.79 194.307 288.563 198.398 290.472 203.761C292.404 209.102 293.37 215.545 293.37 223.091C293.37 230.682 292.415 237.159 290.506 242.523C288.597 247.864 285.836 251.943 282.222 254.761C278.609 257.557 274.234 258.955 269.097 258.955ZM269.097 251.455C274.188 251.455 278.143 249 280.961 244.091C283.779 239.182 285.188 232.182 285.188 223.091C285.188 217.045 284.54 211.898 283.245 207.648C281.972 203.398 280.131 200.159 277.722 197.932C275.336 195.705 272.461 194.591 269.097 194.591C264.052 194.591 260.109 197.08 257.268 202.057C254.427 207.011 253.006 214.023 253.006 223.091C253.006 229.136 253.643 234.273 254.915 238.5C256.188 242.727 258.018 245.943 260.404 248.148C262.813 250.352 265.711 251.455 269.097 251.455Z" fill="#F41313"/>
<path d="M264.097 380.955C258.961 380.955 254.586 379.557 250.972 376.761C247.359 373.943 244.597 369.864 242.688 364.523C240.779 359.159 239.825 352.682 239.825 345.091C239.825 337.545 240.779 331.102 242.688 325.761C244.62 320.398 247.393 316.307 251.006 313.489C254.643 310.648 259.006 309.227 264.097 309.227C269.188 309.227 273.54 310.648 277.154 313.489C280.79 316.307 283.563 320.398 285.472 325.761C287.404 331.102 288.37 337.545 288.37 345.091C288.37 352.682 287.415 359.159 285.506 364.523C283.597 369.864 280.836 373.943 277.222 376.761C273.609 379.557 269.234 380.955 264.097 380.955ZM264.097 373.455C269.188 373.455 273.143 371 275.961 366.091C278.779 361.182 280.188 354.182 280.188 345.091C280.188 339.045 279.54 333.898 278.245 329.648C276.972 325.398 275.131 322.159 272.722 319.932C270.336 317.705 267.461 316.591 264.097 316.591C259.052 316.591 255.109 319.08 252.268 324.057C249.427 329.011 248.006 336.023 248.006 345.091C248.006 351.136 248.643 356.273 249.915 360.5C251.188 364.727 253.018 367.943 255.404 370.148C257.813 372.352 260.711 373.455 264.097 373.455Z" fill="#F41313"/>
<path d="M207.097 501.955C201.961 501.955 197.586 500.557 193.972 497.761C190.359 494.943 187.597 490.864 185.688 485.523C183.779 480.159 182.825 473.682 182.825 466.091C182.825 458.545 183.779 452.102 185.688 446.761C187.62 441.398 190.393 437.307 194.006 434.489C197.643 431.648 202.006 430.227 207.097 430.227C212.188 430.227 216.54 431.648 220.154 434.489C223.79 437.307 226.563 441.398 228.472 446.761C230.404 452.102 231.37 458.545 231.37 466.091C231.37 473.682 230.415 480.159 228.506 485.523C226.597 490.864 223.836 494.943 220.222 497.761C216.609 500.557 212.234 501.955 207.097 501.955ZM207.097 494.455C212.188 494.455 216.143 492 218.961 487.091C221.779 482.182 223.188 475.182 223.188 466.091C223.188 460.045 222.54 454.898 221.245 450.648C219.972 446.398 218.131 443.159 215.722 440.932C213.336 438.705 210.461 437.591 207.097 437.591C202.052 437.591 198.109 440.08 195.268 445.057C192.427 450.011 191.006 457.023 191.006 466.091C191.006 472.136 191.643 477.273 192.915 481.5C194.188 485.727 196.018 488.943 198.404 491.148C200.813 493.352 203.711 494.455 207.097 494.455ZM267.097 501.955C261.961 501.955 257.586 500.557 253.972 497.761C250.359 494.943 247.597 490.864 245.688 485.523C243.779 480.159 242.825 473.682 242.825 466.091C242.825 458.545 243.779 452.102 245.688 446.761C247.62 441.398 250.393 437.307 254.006 434.489C257.643 431.648 262.006 430.227 267.097 430.227C272.188 430.227 276.54 431.648 280.154 434.489C283.79 437.307 286.563 441.398 288.472 446.761C290.404 452.102 291.37 458.545 291.37 466.091C291.37 473.682 290.415 480.159 288.506 485.523C286.597 490.864 283.836 494.943 280.222 497.761C276.609 500.557 272.234 501.955 267.097 501.955ZM267.097 494.455C272.188 494.455 276.143 492 278.961 487.091C281.779 482.182 283.188 475.182 283.188 466.091C283.188 460.045 282.54 454.898 281.245 450.648C279.972 446.398 278.131 443.159 275.722 440.932C273.336 438.705 270.461 437.591 267.097 437.591C262.052 437.591 258.109 440.08 255.268 445.057C252.427 450.011 251.006 457.023 251.006 466.091C251.006 472.136 251.643 477.273 252.915 481.5C254.188 485.727 256.018 488.943 258.404 491.148C260.813 493.352 263.711 494.455 267.097 494.455Z" fill="#F41313"/>
</svg>
